<?xml version="1.0" encoding="UTF-8" standalone="no"?>
<!DOCTYPE svg PUBLIC "-//W3C//DTD SVG 1.1//EN" "http://www.w3.org/Graphics/SVG/1.1/DTD/svg11.dtd">
<svg width="100%" height="100%" viewBox="0 0 322 309" version="1.1" xmlns="http://www.w3.org/2000/svg" xmlns:xlink="http://www.w3.org/1999/xlink" xml:space="preserve" xmlns:serif="http://www.serif.com/" style="fill-rule:evenodd;clip-rule:evenodd;stroke-linejoin:round;stroke-miterlimit:2;">
    <g transform="matrix(1,0,0,1,-164.19,-455.552)">
        <g>
            <path d="M460.48,598.995C455.06,571.891 472.678,565.114 463.19,532.589C453.704,500.063 404.012,493.287 404.012,493.287L403.744,493.581C394.975,492.662 385.83,493.985 377.875,497.036C359.612,504.04 347.607,520.443 338.97,537.612L338.908,537.616C337.821,539.983 336.794,542.34 335.394,544.553C335.147,544.945 334.88,545.321 334.607,545.693C334.267,546.695 333.818,547.625 333.146,548.437L333.129,548.458C329.991,556.848 326.217,565.073 320.27,571.79C311.763,581.399 299.443,583.762 288.034,588.325C266.378,596.987 249.841,616.253 244.211,638.842C241.732,648.79 241.622,659.284 243.596,669.393C255.747,776.383 383.231,776.532 434.73,748.072C486.23,719.612 465.901,626.101 460.48,598.995Z" style="fill:rgb(240,228,134);fill-rule:nonzero;"/>
            <path d="M441.122,568.68C435.32,539.673 454.175,532.421 444.022,497.612C433.87,462.804 380.69,455.552 380.69,455.552L209.014,644.019C222.019,758.517 358.451,758.678 413.566,728.22C468.679,697.762 446.923,597.687 441.122,568.68Z" style="fill:rgb(196,201,137);fill-rule:nonzero;"/>
            <path d="M418.535,586.746C416.54,572.51 410.878,558.801 411.777,544.249C413.243,520.529 426.336,492.718 409.961,471.297C396.847,454.141 371.639,452.309 352.719,459.565C333.174,467.06 320.327,484.614 311.083,502.988L311.018,502.993C309.853,505.526 308.754,508.047 307.257,510.416C306.991,510.835 306.706,511.238 306.415,511.637C306.049,512.708 305.569,513.703 304.85,514.573L304.832,514.595C301.474,523.574 297.435,532.377 291.071,539.565C281.966,549.849 268.782,552.376 256.571,557.26C233.396,566.53 215.697,587.148 209.674,611.323C203.572,635.808 210.864,663.385 227.913,681.923C246.585,702.226 274.24,710.477 300.866,713.629C315.49,715.36 330.436,715.516 344.767,711.763C356.453,708.703 367.456,703.195 377.106,695.947C398.292,680.036 412.147,656.44 417.372,630.602C420.278,616.23 420.569,601.256 418.535,586.746Z" style="fill:rgb(243,250,170);fill-rule:nonzero;"/>
            <path d="M340.479,585.299C333.207,580.815 324.251,579.49 315.499,580.161L318.661,580.543C301.209,578.116 281.953,590.187 275.452,607.628C268.95,625.07 275.958,645.86 291.177,654.279C306.395,662.697 328.058,657.768 339.786,643.217C344.818,636.974 348.012,629.452 350.541,621.887C352.2,616.92 353.621,611.771 353.438,606.646C353.116,597.707 347.75,589.782 340.479,585.299Z" style="fill:rgb(181,123,69);fill-rule:nonzero;"/>
            <path d="M338.013,582.114C331.784,576.786 323.61,574.5 315.387,574.271L318.282,574.99C302.335,570.694 282.972,580.988 274.831,598.089C266.69,615.189 270.719,637.113 283.869,647.283C297.021,657.452 317.769,654.688 330.425,641.081C335.855,635.242 339.729,627.908 342.988,620.461C345.129,615.571 347.068,610.47 347.512,605.228C348.285,596.083 344.241,587.443 338.013,582.114Z" style="fill:rgb(235,173,115);fill-rule:nonzero;"/>
            <path d="M322,714.804C321.558,714.804 321.118,714.802 320.676,714.797C328.788,714.712 336.871,713.831 344.767,711.763C345.496,711.573 346.221,711.373 346.944,711.163C347.279,711.552 347.404,711.763 347.404,711.763C339.081,713.943 330.553,714.804 322,714.804Z" style="fill:rgb(176,191,127);fill-rule:nonzero;"/>
            <path d="M320.676,714.797C314.94,714.738 309.196,714.303 303.502,713.629C276.876,710.477 249.221,702.226 230.549,681.923C213.5,663.385 206.208,635.808 212.31,611.323C218.334,587.148 236.032,566.53 259.208,557.26C271.418,552.376 284.602,549.849 293.707,539.565C300.07,532.377 304.109,523.574 307.468,514.595L307.485,514.573C308.205,513.703 308.685,512.708 309.051,511.637C309.342,511.238 309.627,510.835 309.893,510.416C311.39,508.047 312.489,505.526 313.653,502.993L313.719,502.988C322.963,484.614 335.365,465.778 355.354,459.565C355.411,459.547 355.457,459.538 355.495,459.538C357.77,459.538 326.057,491.628 318.278,532.468C316.753,540.474 311.69,561.462 293.897,571.346C276.105,581.23 263.586,610.883 262.927,640.535C262.267,670.187 315.643,695.228 330.14,701.158C341.557,705.829 345.699,709.72 346.944,711.163C346.221,711.373 345.496,711.573 344.767,711.763C336.871,713.831 328.788,714.712 320.676,714.797Z" style="fill:rgb(218,235,157);fill-rule:nonzero;"/>
            <path d="M332.314,531.618C329.378,531.924 327.245,534.552 327.551,537.488C327.856,540.425 330.484,542.558 333.421,542.252C336.357,541.946 338.49,539.318 338.185,536.382C337.879,533.445 335.251,531.313 332.314,531.618Z" style="fill:rgb(168,131,64);fill-rule:nonzero;"/>
            <path d="M383.127,548.751C380.19,549.057 378.058,551.685 378.363,554.621C378.668,557.557 381.297,559.689 384.232,559.385C387.169,559.079 389.302,556.451 388.996,553.515C388.691,550.578 386.063,548.445 383.127,548.751Z" style="fill:rgb(168,131,64);fill-rule:nonzero;"/>
            <path d="M263.025,532.916L263.048,532.87C263.923,530.526 264.562,528.132 264.971,525.663C265.283,523.775 262.393,522.963 262.078,524.866C261.778,526.668 261.355,528.43 260.808,530.162C259.91,529.474 259.125,528.665 258.479,527.679C257.427,526.069 254.828,527.57 255.889,529.192C256.988,530.872 258.381,532.233 260.061,533.282C261.504,541.938 264.158,550.188 268.002,558.094C268.846,559.83 271.434,558.311 270.592,556.58C266.919,549.026 264.438,541.161 263.025,532.916Z" style="fill:rgb(168,131,64);fill-rule:nonzero;"/>
            <path d="M484.361,621.658C482.867,621.483 481.374,621.309 479.881,621.134C480.313,620.322 480.744,619.51 481.176,618.697C482.082,616.994 479.494,615.477 478.586,617.184C477.852,618.563 477.117,619.944 476.384,621.324C460.063,628.789 441.977,631.116 424.285,627.991C422.397,627.657 421.587,630.548 423.488,630.884C442.044,634.162 460.811,631.747 477.92,623.905C480.067,624.156 482.215,624.407 484.361,624.658C486.275,624.882 486.26,621.88 484.361,621.658Z" style="fill:rgb(168,131,64);fill-rule:nonzero;"/>
            <path d="M300.99,679.206C302.293,678.472 305.227,677.212 306.018,679.036C307.46,682.358 299.49,683.264 296.344,683.332C297.741,681.846 299.201,680.214 300.99,679.206ZM336.277,725.306C312.926,729.873 302.289,704.953 297.1,686.371C300.203,686.364 303.432,685.737 306.088,684.155C308.085,682.967 310.193,680.296 309.141,677.828C308.043,675.256 304.885,674.84 302.495,675.396C298.994,676.209 296.422,678.886 294.044,681.4C293.866,681.589 293.754,681.791 293.689,681.994C293.293,682.319 293.056,682.83 293.221,683.475C296.281,695.465 299.772,708.117 308.287,717.512C315.58,725.561 326.221,730.321 337.074,728.198C338.967,727.828 338.166,724.936 336.277,725.306Z" style="fill:rgb(168,131,64);fill-rule:nonzero;"/>
            <path d="M167.63,611.417L167.598,611.39C168.082,610.11 168.795,608.974 169.809,608.038C170.636,607.275 172.617,605.829 173.809,606.827C175.34,608.11 173.023,609.602 171.916,610.187C171.361,610.479 168.179,611.97 167.63,611.417ZM231.47,646.674C206.279,649.196 181.262,636.222 168.662,614.424C170.375,614.249 172.217,613.425 173.43,612.776C175.807,611.507 178.404,608.966 177,606.058C175.781,603.534 172.691,603.08 170.324,604.118C167.531,605.343 165.633,607.971 164.631,610.767C164.583,610.901 164.56,611.027 164.548,611.149C164.194,611.576 164.047,612.176 164.364,612.805C176.73,637.334 204.126,652.411 231.47,649.674C233.373,649.483 233.393,646.481 231.47,646.674Z" style="fill:rgb(168,131,64);fill-rule:nonzero;"/>
            <path d="M361.442,559.691C356.461,567.463 345.094,563.402 345.684,554.384C345.811,552.456 342.81,552.464 342.684,554.384C341.886,566.58 357.53,571.351 364.033,561.206C365.078,559.576 362.482,558.069 361.442,559.691Z" style="fill:rgb(168,131,64);fill-rule:nonzero;"/>
        </g>
    </g>
</svg>
