<?xml version="1.0" encoding="UTF-8" standalone="no"?>
<!DOCTYPE svg PUBLIC "-//W3C//DTD SVG 1.1//EN" "http://www.w3.org/Graphics/SVG/1.1/DTD/svg11.dtd">
<svg width="100%" height="100%" viewBox="0 0 132 158" version="1.1" xmlns="http://www.w3.org/2000/svg" xmlns:xlink="http://www.w3.org/1999/xlink" xml:space="preserve" xmlns:serif="http://www.serif.com/" style="fill-rule:evenodd;clip-rule:evenodd;stroke-linejoin:round;stroke-miterlimit:2;">
    <g transform="matrix(1,0,0,1,-845.481,-470.09)">
        <path d="M972.326,531.525C969.175,515.773 979.414,511.835 973.901,492.932C968.388,474.028 939.508,470.091 939.508,470.091L846.279,572.438C853.342,634.616 927.432,634.703 957.361,618.163C987.29,601.623 975.477,547.277 972.326,531.525Z" style="fill:rgb(196,201,137);fill-rule:nonzero;"/>
        <path d="M960.06,541.336C958.977,533.604 955.901,526.16 956.39,518.258C957.187,505.377 964.296,490.273 955.403,478.642C948.282,469.324 934.593,468.329 924.318,472.269C913.704,476.34 906.728,485.873 901.708,495.85L901.672,495.853C901.04,497.23 900.443,498.599 899.63,499.885C899.485,500.112 899.331,500.331 899.173,500.548C898.974,501.13 898.714,501.67 898.322,502.142L898.314,502.154C896.489,507.03 894.296,511.811 890.84,515.714C885.896,521.299 878.736,522.672 872.105,525.323C859.52,530.357 849.908,541.554 846.637,554.683C843.324,567.979 847.284,582.954 856.542,593.022C866.682,604.048 881.7,608.528 896.16,610.24C904.102,611.18 912.218,611.265 920.001,609.227C926.347,607.565 932.321,604.574 937.561,600.638C949.066,591.997 956.591,579.183 959.429,565.152C961.007,557.348 961.164,549.216 960.06,541.336Z" style="fill:rgb(243,250,170);fill-rule:nonzero;"/>
        <path d="M917.671,540.55C913.722,538.115 908.858,537.396 904.106,537.76L905.823,537.968C896.346,536.649 885.889,543.204 882.358,552.676C878.828,562.148 882.634,573.438 890.897,578.01C899.162,582.581 910.926,579.904 917.295,572.003C920.028,568.612 921.762,564.527 923.136,560.419C924.036,557.722 924.808,554.926 924.708,552.143C924.534,547.288 921.62,542.984 917.671,540.55Z" style="fill:rgb(181,123,69);fill-rule:nonzero;"/>
        <path d="M916.332,538.821C912.949,535.927 908.511,534.686 904.045,534.562L905.617,534.952C896.957,532.619 886.441,538.209 882.021,547.496C877.601,556.782 879.788,568.688 886.93,574.211C894.071,579.733 905.338,578.232 912.212,570.843C915.161,567.672 917.264,563.689 919.034,559.645C920.196,556.989 921.25,554.219 921.49,551.372C921.91,546.406 919.714,541.715 916.332,538.821Z" style="fill:rgb(235,173,115);fill-rule:nonzero;"/>
        <path d="M907.634,610.878C907.395,610.878 907.154,610.876 906.915,610.874C911.321,610.828 915.712,610.35 920.001,609.227C920.396,609.123 920.79,609.015 921.182,608.901C921.364,609.112 921.432,609.227 921.432,609.227C916.912,610.41 912.28,610.878 907.634,610.878Z" style="fill:rgb(176,191,127);fill-rule:nonzero;"/>
        <path d="M906.915,610.874C903.8,610.842 900.683,610.606 897.591,610.24C883.132,608.528 868.113,604.048 857.974,593.022C848.715,582.954 844.755,567.979 848.068,554.683C851.34,541.554 860.951,530.357 873.537,525.323C880.168,522.672 887.327,521.299 892.271,515.714C895.728,511.811 897.921,507.03 899.744,502.154L899.754,502.142C900.145,501.67 900.405,501.13 900.604,500.548C900.763,500.331 900.917,500.112 901.061,499.885C901.874,498.599 902.472,497.23 903.104,495.853L903.139,495.85C908.159,485.873 914.895,475.644 925.749,472.269C925.779,472.26 925.805,472.255 925.825,472.255C927.064,472.255 909.84,489.681 905.615,511.86C904.787,516.208 902.037,527.605 892.375,532.973C882.714,538.34 875.914,554.443 875.556,570.546C875.198,586.649 904.183,600.247 912.057,603.468C918.257,606.004 920.506,608.118 921.182,608.901C920.79,609.015 920.396,609.123 920.001,609.227C915.712,610.35 911.321,610.828 906.915,610.874Z" style="fill:rgb(218,235,157);fill-rule:nonzero;"/>
    </g>
</svg>
